<mxfile host="Electron" agent="Mozilla/5.0 (Macintosh; Intel Mac OS X 10_15_7) AppleWebKit/537.36 (KHTML, like Gecko) draw.io/28.0.6 Chrome/138.0.7204.100 Electron/37.2.3 Safari/537.36" version="28.0.6">
  <diagram name="Page-1" id="tl4Z5IfBhIsuZnEhQxoB">
    <mxGraphModel dx="1223" dy="803" grid="1" gridSize="10" guides="1" tooltips="1" connect="1" arrows="1" fold="1" page="1" pageScale="1" pageWidth="1100" pageHeight="850" math="0" shadow="0">
      <root>
        <mxCell id="0" />
        <mxCell id="1" parent="0" />
        <mxCell id="hHBJ2OHv4AnQ2nPkhJhY-1" value="limit client (e.g., http request processing)" style="shape=umlLifeline;perimeter=lifelinePerimeter;whiteSpace=wrap;html=1;container=1;dropTarget=0;collapsible=0;recursiveResize=0;outlineConnect=0;portConstraint=eastwest;newEdgeStyle={&quot;curved&quot;:0,&quot;rounded&quot;:0};" vertex="1" parent="1">
          <mxGeometry x="70" y="40" width="100" height="780" as="geometry" />
        </mxCell>
        <mxCell id="hHBJ2OHv4AnQ2nPkhJhY-15" value="" style="html=1;points=[[0,0,0,0,5],[0,1,0,0,-5],[1,0,0,0,5],[1,1,0,0,-5]];perimeter=orthogonalPerimeter;outlineConnect=0;targetShapes=umlLifeline;portConstraint=eastwest;newEdgeStyle={&quot;curved&quot;:0,&quot;rounded&quot;:0};" vertex="1" parent="hHBJ2OHv4AnQ2nPkhJhY-1">
          <mxGeometry x="45" y="60" width="10" height="720" as="geometry" />
        </mxCell>
        <mxCell id="hHBJ2OHv4AnQ2nPkhJhY-2" value="Limit" style="shape=umlLifeline;perimeter=lifelinePerimeter;whiteSpace=wrap;html=1;container=1;dropTarget=0;collapsible=0;recursiveResize=0;outlineConnect=0;portConstraint=eastwest;newEdgeStyle={&quot;curved&quot;:0,&quot;rounded&quot;:0};" vertex="1" parent="1">
          <mxGeometry x="180" y="40" width="100" height="390" as="geometry" />
        </mxCell>
        <mxCell id="hHBJ2OHv4AnQ2nPkhJhY-9" value="" style="html=1;points=[[0,0,0,0,5],[0,1,0,0,-5],[1,0,0,0,5],[1,1,0,0,-5]];perimeter=orthogonalPerimeter;outlineConnect=0;targetShapes=umlLifeline;portConstraint=eastwest;newEdgeStyle={&quot;curved&quot;:0,&quot;rounded&quot;:0};" vertex="1" parent="hHBJ2OHv4AnQ2nPkhJhY-2">
          <mxGeometry x="45" y="110" width="10" height="270" as="geometry" />
        </mxCell>
        <mxCell id="hHBJ2OHv4AnQ2nPkhJhY-4" value="Outcome&lt;div&gt;Aware&lt;/div&gt;&lt;div&gt;Token&lt;/div&gt;" style="shape=umlLifeline;perimeter=lifelinePerimeter;whiteSpace=wrap;html=1;container=1;dropTarget=0;collapsible=0;recursiveResize=0;outlineConnect=0;portConstraint=eastwest;newEdgeStyle={&quot;curved&quot;:0,&quot;rounded&quot;:0};size=40;" vertex="1" parent="1">
          <mxGeometry x="370" y="40" width="90" height="580" as="geometry" />
        </mxCell>
        <mxCell id="hHBJ2OHv4AnQ2nPkhJhY-24" value="" style="html=1;points=[[0,0,0,0,5],[0,1,0,0,-5],[1,0,0,0,5],[1,1,0,0,-5]];perimeter=orthogonalPerimeter;outlineConnect=0;targetShapes=umlLifeline;portConstraint=eastwest;newEdgeStyle={&quot;curved&quot;:0,&quot;rounded&quot;:0};" vertex="1" parent="hHBJ2OHv4AnQ2nPkhJhY-4">
          <mxGeometry x="45" y="340" width="10" height="30" as="geometry" />
        </mxCell>
        <mxCell id="hHBJ2OHv4AnQ2nPkhJhY-28" value="" style="html=1;points=[[0,0,0,0,5],[0,1,0,0,-5],[1,0,0,0,5],[1,1,0,0,-5]];perimeter=orthogonalPerimeter;outlineConnect=0;targetShapes=umlLifeline;portConstraint=eastwest;newEdgeStyle={&quot;curved&quot;:0,&quot;rounded&quot;:0};" vertex="1" parent="hHBJ2OHv4AnQ2nPkhJhY-4">
          <mxGeometry x="45" y="410" width="10" height="70" as="geometry" />
        </mxCell>
        <mxCell id="hHBJ2OHv4AnQ2nPkhJhY-88" value="" style="html=1;points=[[0,0,0,0,5],[0,1,0,0,-5],[1,0,0,0,5],[1,1,0,0,-5]];perimeter=orthogonalPerimeter;outlineConnect=0;targetShapes=umlLifeline;portConstraint=eastwest;newEdgeStyle={&quot;curved&quot;:0,&quot;rounded&quot;:0};" vertex="1" parent="hHBJ2OHv4AnQ2nPkhJhY-4">
          <mxGeometry x="45" y="120" width="10" height="30" as="geometry" />
        </mxCell>
        <mxCell id="hHBJ2OHv4AnQ2nPkhJhY-7" value="limit client context (e.g., request context)" style="shape=umlLifeline;perimeter=lifelinePerimeter;whiteSpace=wrap;html=1;container=1;dropTarget=0;collapsible=0;recursiveResize=0;outlineConnect=0;portConstraint=eastwest;newEdgeStyle={&quot;curved&quot;:0,&quot;rounded&quot;:0};" vertex="1" parent="1">
          <mxGeometry x="960" y="40" width="100" height="780" as="geometry" />
        </mxCell>
        <mxCell id="hHBJ2OHv4AnQ2nPkhJhY-38" value="" style="html=1;points=[[0,0,0,0,5],[0,1,0,0,-5],[1,0,0,0,5],[1,1,0,0,-5]];perimeter=orthogonalPerimeter;outlineConnect=0;targetShapes=umlLifeline;portConstraint=eastwest;newEdgeStyle={&quot;curved&quot;:0,&quot;rounded&quot;:0};" vertex="1" parent="hHBJ2OHv4AnQ2nPkhJhY-7">
          <mxGeometry x="45" y="590" width="10" height="40" as="geometry" />
        </mxCell>
        <mxCell id="hHBJ2OHv4AnQ2nPkhJhY-99" value="" style="html=1;points=[[0,0,0,0,5],[0,1,0,0,-5],[1,0,0,0,5],[1,1,0,0,-5]];perimeter=orthogonalPerimeter;outlineConnect=0;targetShapes=umlLifeline;portConstraint=eastwest;newEdgeStyle={&quot;curved&quot;:0,&quot;rounded&quot;:0};" vertex="1" parent="hHBJ2OHv4AnQ2nPkhJhY-7">
          <mxGeometry x="45" y="660" width="10" height="80" as="geometry" />
        </mxCell>
        <mxCell id="hHBJ2OHv4AnQ2nPkhJhY-8" value="&lt;i&gt;incoming work&amp;nbsp;&lt;/i&gt;&lt;div&gt;&lt;i&gt;(e.g., http request)&lt;/i&gt;&lt;/div&gt;" style="html=1;verticalAlign=bottom;startArrow=oval;startFill=1;endArrow=block;startSize=8;curved=0;rounded=0;" edge="1" parent="1" target="hHBJ2OHv4AnQ2nPkhJhY-15">
          <mxGeometry width="60" relative="1" as="geometry">
            <mxPoint x="60" y="120" as="sourcePoint" />
            <mxPoint x="120" y="120" as="targetPoint" />
          </mxGeometry>
        </mxCell>
        <mxCell id="hHBJ2OHv4AnQ2nPkhJhY-10" value="tryAcquire()" style="html=1;verticalAlign=bottom;endArrow=block;curved=0;rounded=0;entryX=0;entryY=0;entryDx=0;entryDy=5;entryPerimeter=0;" edge="1" target="hHBJ2OHv4AnQ2nPkhJhY-9" parent="1" source="hHBJ2OHv4AnQ2nPkhJhY-15">
          <mxGeometry relative="1" as="geometry">
            <mxPoint x="125" y="160" as="sourcePoint" />
            <mxPoint x="245" y="160" as="targetPoint" />
          </mxGeometry>
        </mxCell>
        <mxCell id="hHBJ2OHv4AnQ2nPkhJhY-16" value="&lt;i&gt;Limit algorithm decides how to dispose of the work&lt;/i&gt;" style="text;strokeColor=none;align=center;fillColor=none;html=1;verticalAlign=middle;whiteSpace=wrap;rounded=0;" vertex="1" parent="1">
          <mxGeometry x="130" y="200" width="86" height="30" as="geometry" />
        </mxCell>
        <mxCell id="hHBJ2OHv4AnQ2nPkhJhY-23" value="&lt;i&gt;If limit algorithm accepted&amp;nbsp; the&amp;nbsp;&lt;/i&gt;&lt;i style=&quot;background-color: transparent; color: light-dark(rgb(0, 0, 0), rgb(255, 255, 255));&quot;&gt;work for&amp;nbsp; processing:&lt;/i&gt;" style="text;strokeColor=none;align=center;fillColor=none;html=1;verticalAlign=middle;whiteSpace=wrap;rounded=0;" vertex="1" parent="1">
          <mxGeometry x="130" y="310" width="90" height="60" as="geometry" />
        </mxCell>
        <mxCell id="hHBJ2OHv4AnQ2nPkhJhY-25" value="outcome(outcome&lt;span style=&quot;background-color: light-dark(#ffffff, var(--ge-dark-color, #121212)); color: light-dark(rgb(0, 0, 0), rgb(255, 255, 255));&quot;&gt;)&lt;/span&gt;" style="html=1;verticalAlign=bottom;endArrow=block;curved=0;rounded=0;entryX=0;entryY=0;entryDx=0;entryDy=5;entryPerimeter=0;" edge="1" target="hHBJ2OHv4AnQ2nPkhJhY-24" parent="1" source="hHBJ2OHv4AnQ2nPkhJhY-9">
          <mxGeometry relative="1" as="geometry">
            <mxPoint x="255" y="340" as="sourcePoint" />
            <mxPoint x="375" y="340" as="targetPoint" />
          </mxGeometry>
        </mxCell>
        <mxCell id="hHBJ2OHv4AnQ2nPkhJhY-27" value="return Optional(Token),&lt;div&gt;listener contexts&lt;/div&gt;" style="html=1;verticalAlign=bottom;endArrow=open;dashed=1;endSize=8;curved=0;rounded=0;exitX=0;exitY=1;exitDx=0;exitDy=-5;exitPerimeter=0;" edge="1" parent="1" source="hHBJ2OHv4AnQ2nPkhJhY-9" target="hHBJ2OHv4AnQ2nPkhJhY-1">
          <mxGeometry relative="1" as="geometry">
            <mxPoint x="245" y="470" as="sourcePoint" />
            <mxPoint x="140" y="470" as="targetPoint" />
          </mxGeometry>
        </mxCell>
        <mxCell id="hHBJ2OHv4AnQ2nPkhJhY-29" value="dropped()&lt;div&gt;ignore()&lt;/div&gt;&lt;div&gt;success()&lt;/div&gt;" style="html=1;verticalAlign=bottom;endArrow=block;curved=0;rounded=0;entryX=0;entryY=0;entryDx=0;entryDy=5;entryPerimeter=0;" edge="1" target="hHBJ2OHv4AnQ2nPkhJhY-28" parent="1" source="hHBJ2OHv4AnQ2nPkhJhY-15">
          <mxGeometry x="-0.0117" y="-25" relative="1" as="geometry">
            <mxPoint x="140" y="518" as="sourcePoint" />
            <mxPoint x="370" y="518" as="targetPoint" />
            <mxPoint x="1" as="offset" />
          </mxGeometry>
        </mxCell>
        <mxCell id="hHBJ2OHv4AnQ2nPkhJhY-30" value="return" style="html=1;verticalAlign=bottom;endArrow=open;dashed=1;endSize=8;curved=0;rounded=0;exitX=0;exitY=1;exitDx=0;exitDy=-5;exitPerimeter=0;" edge="1" source="hHBJ2OHv4AnQ2nPkhJhY-28" parent="1" target="hHBJ2OHv4AnQ2nPkhJhY-15">
          <mxGeometry relative="1" as="geometry">
            <mxPoint x="119.70000000000005" y="578" as="targetPoint" />
            <mxPoint x="399.5" y="578" as="sourcePoint" />
          </mxGeometry>
        </mxCell>
        <mxCell id="hHBJ2OHv4AnQ2nPkhJhY-39" value="&lt;div&gt;register(listener contexts)&lt;/div&gt;" style="html=1;verticalAlign=bottom;endArrow=block;curved=0;rounded=0;entryX=0;entryY=0;entryDx=0;entryDy=5;" edge="1" target="hHBJ2OHv4AnQ2nPkhJhY-38" parent="1" source="hHBJ2OHv4AnQ2nPkhJhY-1">
          <mxGeometry x="0.0173" y="5" relative="1" as="geometry">
            <mxPoint x="705" y="645" as="sourcePoint" />
            <mxPoint as="offset" />
          </mxGeometry>
        </mxCell>
        <mxCell id="hHBJ2OHv4AnQ2nPkhJhY-40" value="return" style="html=1;verticalAlign=bottom;endArrow=open;dashed=1;endSize=8;curved=0;rounded=0;" edge="1" source="hHBJ2OHv4AnQ2nPkhJhY-38" parent="1" target="hHBJ2OHv4AnQ2nPkhJhY-15">
          <mxGeometry x="0.0114" relative="1" as="geometry">
            <mxPoint x="119.5" y="680" as="targetPoint" />
            <mxPoint x="1009.5" y="680" as="sourcePoint" />
            <mxPoint as="offset" />
          </mxGeometry>
        </mxCell>
        <mxCell id="hHBJ2OHv4AnQ2nPkhJhY-41" value="limit client processing (e.g. filter)" style="shape=umlLifeline;perimeter=lifelinePerimeter;whiteSpace=wrap;html=1;container=1;dropTarget=0;collapsible=0;recursiveResize=0;outlineConnect=0;portConstraint=eastwest;newEdgeStyle={&quot;curved&quot;:0,&quot;rounded&quot;:0};" vertex="1" parent="1">
          <mxGeometry x="860" y="40" width="90" height="780" as="geometry" />
        </mxCell>
        <mxCell id="hHBJ2OHv4AnQ2nPkhJhY-42" value="" style="html=1;points=[[0,0,0,0,5],[0,1,0,0,-5],[1,0,0,0,5],[1,1,0,0,-5]];perimeter=orthogonalPerimeter;outlineConnect=0;targetShapes=umlLifeline;portConstraint=eastwest;newEdgeStyle={&quot;curved&quot;:0,&quot;rounded&quot;:0};" vertex="1" parent="hHBJ2OHv4AnQ2nPkhJhY-41">
          <mxGeometry x="40" y="650" width="10" height="60" as="geometry" />
        </mxCell>
        <mxCell id="hHBJ2OHv4AnQ2nPkhJhY-43" value="&lt;i&gt;process the work (e.g., route the request, invoke filters)&lt;/i&gt;" style="html=1;verticalAlign=bottom;endArrow=block;curved=0;rounded=0;entryX=0;entryY=0;entryDx=0;entryDy=5;" edge="1" target="hHBJ2OHv4AnQ2nPkhJhY-42" parent="hHBJ2OHv4AnQ2nPkhJhY-41" source="hHBJ2OHv4AnQ2nPkhJhY-1">
          <mxGeometry relative="1" as="geometry">
            <mxPoint x="-25" y="685" as="sourcePoint" />
          </mxGeometry>
        </mxCell>
        <mxCell id="hHBJ2OHv4AnQ2nPkhJhY-44" value="return" style="html=1;verticalAlign=bottom;endArrow=open;dashed=1;endSize=8;curved=0;rounded=0;" edge="1" source="hHBJ2OHv4AnQ2nPkhJhY-42" parent="1" target="hHBJ2OHv4AnQ2nPkhJhY-15">
          <mxGeometry relative="1" as="geometry">
            <mxPoint x="119.5" y="760" as="targetPoint" />
            <mxPoint x="840" y="740" as="sourcePoint" />
          </mxGeometry>
        </mxCell>
        <mxCell id="hHBJ2OHv4AnQ2nPkhJhY-49" value="get(listener context type)" style="html=1;verticalAlign=bottom;endArrow=block;curved=0;rounded=0;" edge="1" target="hHBJ2OHv4AnQ2nPkhJhY-99" parent="1" source="hHBJ2OHv4AnQ2nPkhJhY-42">
          <mxGeometry relative="1" as="geometry">
            <mxPoint x="915" y="717" as="sourcePoint" />
            <mxPoint x="1005" y="720" as="targetPoint" />
          </mxGeometry>
        </mxCell>
        <mxCell id="hHBJ2OHv4AnQ2nPkhJhY-50" value="return listener context" style="html=1;verticalAlign=bottom;endArrow=open;dashed=1;endSize=8;curved=0;rounded=0;" edge="1" source="hHBJ2OHv4AnQ2nPkhJhY-99" parent="1" target="hHBJ2OHv4AnQ2nPkhJhY-42">
          <mxGeometry x="-0.0526" y="20" relative="1" as="geometry">
            <mxPoint x="910" y="740" as="targetPoint" />
            <mxPoint x="1005" y="740" as="sourcePoint" />
            <mxPoint as="offset" />
          </mxGeometry>
        </mxCell>
        <mxCell id="hHBJ2OHv4AnQ2nPkhJhY-53" value="Limit&lt;div&gt;Outcome&lt;/div&gt;" style="shape=umlLifeline;perimeter=lifelinePerimeter;whiteSpace=wrap;html=1;container=1;dropTarget=0;collapsible=0;recursiveResize=0;outlineConnect=0;portConstraint=eastwest;newEdgeStyle={&quot;curved&quot;:0,&quot;rounded&quot;:0};" vertex="1" parent="1">
          <mxGeometry x="470" y="40" width="100" height="550" as="geometry" />
        </mxCell>
        <mxCell id="hHBJ2OHv4AnQ2nPkhJhY-54" value="" style="html=1;points=[[0,0,0,0,5],[0,1,0,0,-5],[1,0,0,0,5],[1,1,0,0,-5]];perimeter=orthogonalPerimeter;outlineConnect=0;targetShapes=umlLifeline;portConstraint=eastwest;newEdgeStyle={&quot;curved&quot;:0,&quot;rounded&quot;:0};" vertex="1" parent="hHBJ2OHv4AnQ2nPkhJhY-53">
          <mxGeometry x="45" y="230" width="10" height="30" as="geometry" />
        </mxCell>
        <mxCell id="hHBJ2OHv4AnQ2nPkhJhY-57" value="" style="html=1;points=[[0,0,0,0,5],[0,1,0,0,-5],[1,0,0,0,5],[1,1,0,0,-5]];perimeter=orthogonalPerimeter;outlineConnect=0;targetShapes=umlLifeline;portConstraint=eastwest;newEdgeStyle={&quot;curved&quot;:0,&quot;rounded&quot;:0};" vertex="1" parent="hHBJ2OHv4AnQ2nPkhJhY-53">
          <mxGeometry x="45" y="420" width="10" height="50" as="geometry" />
        </mxCell>
        <mxCell id="hHBJ2OHv4AnQ2nPkhJhY-55" value="create(enabledListeners)" style="html=1;verticalAlign=bottom;endArrow=block;curved=0;rounded=0;entryX=0;entryY=0;entryDx=0;entryDy=5;" edge="1" target="hHBJ2OHv4AnQ2nPkhJhY-54" parent="1" source="hHBJ2OHv4AnQ2nPkhJhY-2">
          <mxGeometry relative="1" as="geometry">
            <mxPoint x="300" y="255" as="sourcePoint" />
          </mxGeometry>
        </mxCell>
        <mxCell id="hHBJ2OHv4AnQ2nPkhJhY-56" value="return" style="html=1;verticalAlign=bottom;endArrow=open;dashed=1;endSize=8;curved=0;rounded=0;exitX=0;exitY=1;exitDx=0;exitDy=-5;exitPerimeter=0;" edge="1" source="hHBJ2OHv4AnQ2nPkhJhY-54" parent="1" target="hHBJ2OHv4AnQ2nPkhJhY-9">
          <mxGeometry relative="1" as="geometry">
            <mxPoint x="250" y="240" as="targetPoint" />
            <mxPoint x="495.4000000000001" y="233.5999999999999" as="sourcePoint" />
          </mxGeometry>
        </mxCell>
        <mxCell id="hHBJ2OHv4AnQ2nPkhJhY-58" value="execResult(execResult)" style="html=1;verticalAlign=bottom;endArrow=block;curved=0;rounded=0;entryX=0;entryY=0;entryDx=0;entryDy=5;entryPerimeter=0;" edge="1" target="hHBJ2OHv4AnQ2nPkhJhY-57" parent="1" source="hHBJ2OHv4AnQ2nPkhJhY-28">
          <mxGeometry relative="1" as="geometry">
            <mxPoint x="379.70000000000005" y="530" as="sourcePoint" />
            <mxPoint x="529.5" y="530" as="targetPoint" />
          </mxGeometry>
        </mxCell>
        <mxCell id="hHBJ2OHv4AnQ2nPkhJhY-59" value="return" style="html=1;verticalAlign=bottom;endArrow=open;dashed=1;endSize=8;curved=0;rounded=0;exitX=0;exitY=1;exitDx=0;exitDy=-5;exitPerimeter=0;" edge="1" source="hHBJ2OHv4AnQ2nPkhJhY-57" parent="1" target="hHBJ2OHv4AnQ2nPkhJhY-28">
          <mxGeometry relative="1" as="geometry">
            <mxPoint x="379.70000000000005" y="560" as="targetPoint" />
            <mxPoint x="529.5" y="560" as="sourcePoint" />
          </mxGeometry>
        </mxCell>
        <mxCell id="hHBJ2OHv4AnQ2nPkhJhY-60" value="&lt;i style=&quot;font-size: 11px; text-wrap-mode: nowrap;&quot;&gt;listener-specific&lt;span style=&quot;background-color: rgb(255, 255, 255); color: light-dark(rgb(0, 0, 0), rgb(255, 255, 255));&quot;&gt;&amp;nbsp;logic&amp;nbsp;&lt;/span&gt;&lt;span style=&quot;background-color: rgb(255, 255, 255); color: light-dark(rgb(0, 0, 0), rgb(255, 255, 255));&quot;&gt;(e.g. start &amp;amp; stop&lt;/span&gt;&lt;span style=&quot;color: light-dark(rgb(0, 0, 0), rgb(255, 255, 255)); background-color: rgb(255, 255, 255);&quot;&gt;&amp;nbsp;span,&amp;nbsp;&lt;/span&gt;&lt;span style=&quot;color: light-dark(rgb(0, 0, 0), rgb(255, 255, 255)); background-color: rgb(255, 255, 255);&quot;&gt;update meter)&lt;/span&gt;&lt;/i&gt;" style="text;html=1;align=center;verticalAlign=middle;whiteSpace=wrap;rounded=0;" vertex="1" parent="1">
          <mxGeometry x="670" y="730" width="90" height="30" as="geometry" />
        </mxCell>
        <mxCell id="hHBJ2OHv4AnQ2nPkhJhY-61" value="Limit&lt;div&gt;Algorithm&lt;/div&gt;&lt;div&gt;Listener&lt;/div&gt;" style="shape=umlLifeline;perimeter=lifelinePerimeter;whiteSpace=wrap;html=1;container=1;dropTarget=0;collapsible=0;recursiveResize=0;outlineConnect=0;portConstraint=eastwest;newEdgeStyle={&quot;curved&quot;:0,&quot;rounded&quot;:0};" vertex="1" parent="1">
          <mxGeometry x="665" y="40" width="100" height="550" as="geometry" />
        </mxCell>
        <mxCell id="hHBJ2OHv4AnQ2nPkhJhY-68" value="" style="html=1;points=[[0,0,0,0,5],[0,1,0,0,-5],[1,0,0,0,5],[1,1,0,0,-5]];perimeter=orthogonalPerimeter;outlineConnect=0;targetShapes=umlLifeline;portConstraint=eastwest;newEdgeStyle={&quot;curved&quot;:0,&quot;rounded&quot;:0};" vertex="1" parent="hHBJ2OHv4AnQ2nPkhJhY-61">
          <mxGeometry x="45" y="443.5" width="10" height="26.5" as="geometry" />
        </mxCell>
        <mxCell id="hHBJ2OHv4AnQ2nPkhJhY-73" value="" style="html=1;points=[[0,0,0,0,5],[0,1,0,0,-5],[1,0,0,0,5],[1,1,0,0,-5]];perimeter=orthogonalPerimeter;outlineConnect=0;targetShapes=umlLifeline;portConstraint=eastwest;newEdgeStyle={&quot;curved&quot;:0,&quot;rounded&quot;:0};" vertex="1" parent="hHBJ2OHv4AnQ2nPkhJhY-61">
          <mxGeometry x="45" y="290" width="10" height="30" as="geometry" />
        </mxCell>
        <mxCell id="hHBJ2OHv4AnQ2nPkhJhY-62" value="LimitConfig" style="shape=umlLifeline;perimeter=lifelinePerimeter;whiteSpace=wrap;html=1;container=1;dropTarget=0;collapsible=0;recursiveResize=0;outlineConnect=0;portConstraint=eastwest;newEdgeStyle={&quot;curved&quot;:0,&quot;rounded&quot;:0};" vertex="1" parent="1">
          <mxGeometry x="580" y="40" width="70" height="230" as="geometry" />
        </mxCell>
        <mxCell id="hHBJ2OHv4AnQ2nPkhJhY-65" value="" style="html=1;points=[[0,0,0,0,5],[0,1,0,0,-5],[1,0,0,0,5],[1,1,0,0,-5]];perimeter=orthogonalPerimeter;outlineConnect=0;targetShapes=umlLifeline;portConstraint=eastwest;newEdgeStyle={&quot;curved&quot;:0,&quot;rounded&quot;:0};" vertex="1" parent="hHBJ2OHv4AnQ2nPkhJhY-62">
          <mxGeometry x="45" y="180" width="10" height="30" as="geometry" />
        </mxCell>
        <mxCell id="hHBJ2OHv4AnQ2nPkhJhY-64" value="" style="html=1;verticalAlign=bottom;endArrow=open;dashed=1;endSize=8;curved=0;rounded=0;exitX=0;exitY=1;exitDx=0;exitDy=-5;exitPerimeter=0;" edge="1" parent="1" source="hHBJ2OHv4AnQ2nPkhJhY-24" target="hHBJ2OHv4AnQ2nPkhJhY-9">
          <mxGeometry relative="1" as="geometry">
            <mxPoint x="370" y="350" as="sourcePoint" />
            <mxPoint x="250" y="350" as="targetPoint" />
          </mxGeometry>
        </mxCell>
        <mxCell id="hHBJ2OHv4AnQ2nPkhJhY-66" value="enabledListeners()" style="html=1;verticalAlign=bottom;endArrow=block;curved=0;rounded=0;entryX=0;entryY=0;entryDx=0;entryDy=5;" edge="1" target="hHBJ2OHv4AnQ2nPkhJhY-65" parent="1" source="hHBJ2OHv4AnQ2nPkhJhY-2">
          <mxGeometry relative="1" as="geometry">
            <mxPoint x="540" y="265" as="sourcePoint" />
          </mxGeometry>
        </mxCell>
        <mxCell id="hHBJ2OHv4AnQ2nPkhJhY-69" value="onFinish(listenerContext, execResult)" style="html=1;verticalAlign=bottom;endArrow=block;curved=0;rounded=0;entryX=0;entryY=0;entryDx=0;entryDy=5;entryPerimeter=0;" edge="1" target="hHBJ2OHv4AnQ2nPkhJhY-68" parent="1" source="hHBJ2OHv4AnQ2nPkhJhY-57">
          <mxGeometry relative="1" as="geometry">
            <mxPoint x="505" y="547" as="sourcePoint" />
            <mxPoint x="750" y="547" as="targetPoint" />
          </mxGeometry>
        </mxCell>
        <mxCell id="hHBJ2OHv4AnQ2nPkhJhY-70" value="return" style="html=1;verticalAlign=bottom;endArrow=open;dashed=1;endSize=8;curved=0;rounded=0;exitX=0;exitY=1;exitDx=0;exitDy=-5;" edge="1" source="hHBJ2OHv4AnQ2nPkhJhY-68" parent="1" target="hHBJ2OHv4AnQ2nPkhJhY-57">
          <mxGeometry relative="1" as="geometry">
            <mxPoint x="670" y="592" as="targetPoint" />
          </mxGeometry>
        </mxCell>
        <mxCell id="hHBJ2OHv4AnQ2nPkhJhY-71" value="&lt;i&gt;For each propagated context:&lt;/i&gt;" style="text;strokeColor=none;align=center;fillColor=none;html=1;verticalAlign=middle;whiteSpace=wrap;rounded=0;" vertex="1" parent="1">
          <mxGeometry y="630" width="100" height="30" as="geometry" />
        </mxCell>
        <mxCell id="hHBJ2OHv4AnQ2nPkhJhY-67" value="return" style="html=1;verticalAlign=bottom;endArrow=open;dashed=1;endSize=8;curved=0;rounded=0;exitX=0;exitY=1;exitDx=0;exitDy=-5;exitPerimeter=0;" edge="1" source="hHBJ2OHv4AnQ2nPkhJhY-65" parent="1" target="hHBJ2OHv4AnQ2nPkhJhY-9">
          <mxGeometry relative="1" as="geometry">
            <mxPoint x="270" y="290" as="targetPoint" />
            <mxPoint x="610" y="290" as="sourcePoint" />
          </mxGeometry>
        </mxCell>
        <mxCell id="hHBJ2OHv4AnQ2nPkhJhY-74" value="onAccept(outcome) or&lt;div&gt;onReject(outcome)&lt;/div&gt;" style="html=1;verticalAlign=bottom;endArrow=block;curved=0;rounded=0;entryX=0;entryY=0;entryDx=0;entryDy=5;" edge="1" target="hHBJ2OHv4AnQ2nPkhJhY-73" parent="1" source="hHBJ2OHv4AnQ2nPkhJhY-9">
          <mxGeometry relative="1" as="geometry">
            <mxPoint x="260" y="305" as="sourcePoint" />
          </mxGeometry>
        </mxCell>
        <mxCell id="hHBJ2OHv4AnQ2nPkhJhY-75" value="return listenerContext" style="html=1;verticalAlign=bottom;endArrow=open;dashed=1;endSize=8;curved=0;rounded=0;exitX=0;exitY=1;exitDx=0;exitDy=-5;exitPerimeter=0;" edge="1" source="hHBJ2OHv4AnQ2nPkhJhY-73" parent="1" target="hHBJ2OHv4AnQ2nPkhJhY-9">
          <mxGeometry relative="1" as="geometry">
            <mxPoint x="250" y="325" as="targetPoint" />
          </mxGeometry>
        </mxCell>
        <mxCell id="hHBJ2OHv4AnQ2nPkhJhY-83" value="Limiter&lt;div&gt;Handler&lt;/div&gt;" style="shape=umlLifeline;perimeter=lifelinePerimeter;whiteSpace=wrap;html=1;container=1;dropTarget=0;collapsible=0;recursiveResize=0;outlineConnect=0;portConstraint=eastwest;newEdgeStyle={&quot;curved&quot;:0,&quot;rounded&quot;:0};" vertex="1" parent="1">
          <mxGeometry x="290" y="40" width="70" height="160" as="geometry" />
        </mxCell>
        <mxCell id="hHBJ2OHv4AnQ2nPkhJhY-84" value="" style="html=1;points=[[0,0,0,0,5],[0,1,0,0,-5],[1,0,0,0,5],[1,1,0,0,-5]];perimeter=orthogonalPerimeter;outlineConnect=0;targetShapes=umlLifeline;portConstraint=eastwest;newEdgeStyle={&quot;curved&quot;:0,&quot;rounded&quot;:0};" vertex="1" parent="hHBJ2OHv4AnQ2nPkhJhY-83">
          <mxGeometry x="30" y="120" width="10" height="40" as="geometry" />
        </mxCell>
        <mxCell id="hHBJ2OHv4AnQ2nPkhJhY-85" value="tryAcquire()" style="html=1;verticalAlign=bottom;endArrow=block;curved=0;rounded=0;entryX=0;entryY=0;entryDx=0;entryDy=5;" edge="1" target="hHBJ2OHv4AnQ2nPkhJhY-84" parent="1" source="hHBJ2OHv4AnQ2nPkhJhY-9">
          <mxGeometry relative="1" as="geometry">
            <mxPoint x="235" y="165" as="sourcePoint" />
          </mxGeometry>
        </mxCell>
        <mxCell id="hHBJ2OHv4AnQ2nPkhJhY-86" value="return token" style="html=1;verticalAlign=bottom;endArrow=open;dashed=1;endSize=8;curved=0;rounded=0;exitX=0;exitY=1;exitDx=0;exitDy=-5;" edge="1" source="hHBJ2OHv4AnQ2nPkhJhY-84" parent="1" target="hHBJ2OHv4AnQ2nPkhJhY-9">
          <mxGeometry relative="1" as="geometry">
            <mxPoint x="235" y="235" as="targetPoint" />
          </mxGeometry>
        </mxCell>
        <mxCell id="hHBJ2OHv4AnQ2nPkhJhY-89" value="new" style="html=1;verticalAlign=bottom;endArrow=block;curved=0;rounded=0;entryX=0;entryY=0;entryDx=0;entryDy=5;" edge="1" target="hHBJ2OHv4AnQ2nPkhJhY-88" parent="1" source="hHBJ2OHv4AnQ2nPkhJhY-84">
          <mxGeometry relative="1" as="geometry">
            <mxPoint x="365" y="165" as="sourcePoint" />
          </mxGeometry>
        </mxCell>
        <mxCell id="hHBJ2OHv4AnQ2nPkhJhY-90" value="token" style="html=1;verticalAlign=bottom;endArrow=open;dashed=1;endSize=8;curved=0;rounded=0;exitX=0;exitY=1;exitDx=0;exitDy=-5;" edge="1" source="hHBJ2OHv4AnQ2nPkhJhY-88" parent="1" target="hHBJ2OHv4AnQ2nPkhJhY-84">
          <mxGeometry relative="1" as="geometry">
            <mxPoint x="365" y="235" as="targetPoint" />
          </mxGeometry>
        </mxCell>
        <mxCell id="hHBJ2OHv4AnQ2nPkhJhY-91" value="&lt;i&gt;If lthe token is present, indicating the algorithm accepted&amp;nbsp; the&amp;nbsp;&lt;/i&gt;&lt;i style=&quot;background-color: transparent; color: light-dark(rgb(0, 0, 0), rgb(255, 255, 255));&quot;&gt;work for&amp;nbsp; processing:&lt;/i&gt;" style="text;strokeColor=none;align=center;fillColor=none;html=1;verticalAlign=middle;whiteSpace=wrap;rounded=0;" vertex="1" parent="1">
          <mxGeometry x="20" y="440" width="90" height="60" as="geometry" />
        </mxCell>
        <mxCell id="hHBJ2OHv4AnQ2nPkhJhY-92" value="Limit&lt;div&gt;Listener&lt;div&gt;Context&lt;/div&gt;&lt;/div&gt;" style="shape=umlLifeline;perimeter=lifelinePerimeter;whiteSpace=wrap;html=1;container=1;dropTarget=0;collapsible=0;recursiveResize=0;outlineConnect=0;portConstraint=eastwest;newEdgeStyle={&quot;curved&quot;:0,&quot;rounded&quot;:0};" vertex="1" parent="1">
          <mxGeometry x="770" y="40" width="80" height="640" as="geometry" />
        </mxCell>
        <mxCell id="hHBJ2OHv4AnQ2nPkhJhY-93" value="" style="html=1;points=[[0,0,0,0,5],[0,1,0,0,-5],[1,0,0,0,5],[1,1,0,0,-5]];perimeter=orthogonalPerimeter;outlineConnect=0;targetShapes=umlLifeline;portConstraint=eastwest;newEdgeStyle={&quot;curved&quot;:0,&quot;rounded&quot;:0};" vertex="1" parent="hHBJ2OHv4AnQ2nPkhJhY-92">
          <mxGeometry x="35" y="290" width="10" height="20" as="geometry" />
        </mxCell>
        <mxCell id="hHBJ2OHv4AnQ2nPkhJhY-96" value="" style="html=1;points=[[0,0,0,0,5],[0,1,0,0,-5],[1,0,0,0,5],[1,1,0,0,-5]];perimeter=orthogonalPerimeter;outlineConnect=0;targetShapes=umlLifeline;portConstraint=eastwest;newEdgeStyle={&quot;curved&quot;:0,&quot;rounded&quot;:0};" vertex="1" parent="hHBJ2OHv4AnQ2nPkhJhY-92">
          <mxGeometry x="35" y="540" width="10" height="30" as="geometry" />
        </mxCell>
        <mxCell id="hHBJ2OHv4AnQ2nPkhJhY-94" value="new" style="html=1;verticalAlign=bottom;endArrow=block;curved=0;rounded=0;entryX=0;entryY=0;entryDx=0;entryDy=5;" edge="1" target="hHBJ2OHv4AnQ2nPkhJhY-93" parent="1" source="hHBJ2OHv4AnQ2nPkhJhY-73">
          <mxGeometry relative="1" as="geometry">
            <mxPoint x="730" y="335" as="sourcePoint" />
          </mxGeometry>
        </mxCell>
        <mxCell id="hHBJ2OHv4AnQ2nPkhJhY-95" value="listener&lt;div&gt;context&lt;/div&gt;" style="html=1;verticalAlign=bottom;endArrow=open;dashed=1;endSize=8;curved=0;rounded=0;exitX=0;exitY=1;exitDx=0;exitDy=-5;" edge="1" source="hHBJ2OHv4AnQ2nPkhJhY-93" parent="1" target="hHBJ2OHv4AnQ2nPkhJhY-73">
          <mxGeometry x="0.0588" y="35" relative="1" as="geometry">
            <mxPoint x="730" y="405" as="targetPoint" />
            <mxPoint as="offset" />
          </mxGeometry>
        </mxCell>
        <mxCell id="hHBJ2OHv4AnQ2nPkhJhY-97" value="shouldBePropagated()" style="html=1;verticalAlign=bottom;endArrow=block;curved=0;rounded=0;entryX=0;entryY=0;entryDx=0;entryDy=5;" edge="1" target="hHBJ2OHv4AnQ2nPkhJhY-96" parent="1" source="hHBJ2OHv4AnQ2nPkhJhY-15">
          <mxGeometry relative="1" as="geometry">
            <mxPoint x="735" y="545" as="sourcePoint" />
          </mxGeometry>
        </mxCell>
        <mxCell id="hHBJ2OHv4AnQ2nPkhJhY-98" value="return" style="html=1;verticalAlign=bottom;endArrow=open;dashed=1;endSize=8;curved=0;rounded=0;exitX=0;exitY=1;exitDx=0;exitDy=-5;" edge="1" source="hHBJ2OHv4AnQ2nPkhJhY-96" parent="1" target="hHBJ2OHv4AnQ2nPkhJhY-15">
          <mxGeometry relative="1" as="geometry">
            <mxPoint x="735" y="615" as="targetPoint" />
          </mxGeometry>
        </mxCell>
      </root>
    </mxGraphModel>
  </diagram>
</mxfile>
